<?xml version="1.0" encoding="UTF-8" standalone="no"?>
<svg
   xmlns:dc="http://purl.org/dc/elements/1.1/"
   xmlns:cc="http://creativecommons.org/ns#"
   xmlns:rdf="http://www.w3.org/1999/02/22-rdf-syntax-ns#"
   xmlns:svg="http://www.w3.org/2000/svg"
   xmlns="http://www.w3.org/2000/svg"
   xmlns:sodipodi="http://sodipodi.sourceforge.net/DTD/sodipodi-0.dtd"
   xmlns:inkscape="http://www.inkscape.org/namespaces/inkscape"
   fill="none"
   viewBox="0 0 143 32"
   version="1.1"
   id="svg16"
   sodipodi:docname="convocatorias-logo-indigo-500-mark-white-text.svg"
   inkscape:version="1.0.1 (c497b03c, 2020-09-10)"
   inkscape:label="base">
  <metadata
     id="metadata22">
    <rdf:RDF>
      <cc:Work
         rdf:about="">
        <dc:format>image/svg+xml</dc:format>
        <dc:type
           rdf:resource="http://purl.org/dc/dcmitype/StillImage" />
        <dc:title></dc:title>
      </cc:Work>
    </rdf:RDF>
  </metadata>
  <defs
     id="defs20" />
  <sodipodi:namedview
     pagecolor="#ffffff"
     bordercolor="#666666"
     borderopacity="1"
     objecttolerance="10"
     gridtolerance="10"
     guidetolerance="10"
     inkscape:pageopacity="0"
     inkscape:pageshadow="2"
     inkscape:window-width="1275"
     inkscape:window-height="667"
     id="namedview18"
     showgrid="false"
     inkscape:zoom="7.6643357"
     inkscape:cx="84.422674"
     inkscape:cy="16"
     inkscape:window-x="1440"
     inkscape:window-y="70"
     inkscape:window-maximized="0"
     inkscape:current-layer="svg16" />
  <path
     fill="#6366f1"
     d="M15.258 26.865a4.043 4.043 0 01-1.133 2.917A4.006 4.006 0 0111.253 31a3.992 3.992 0 01-2.872-1.218 4.028 4.028 0 01-1.133-2.917c.009-.698.2-1.382.557-1.981.356-.6.863-1.094 1.47-1.433-.024.109.09-.055 0 0l1.86-1.652a8.495 8.495 0 002.304-5.793c0-2.926-1.711-5.901-4.17-7.457.094.055-.036-.094 0 0A3.952 3.952 0 017.8 7.116a3.975 3.975 0 01-.557-1.98 4.042 4.042 0 011.133-2.918A4.006 4.006 0 0111.247 1a3.99 3.99 0 012.872 1.218 4.025 4.025 0 011.133 2.917 8.521 8.521 0 002.347 5.832l.817.8c.326.285.668.551 1.024.798.621.33 1.142.826 1.504 1.431a3.902 3.902 0 01-1.504 5.442c.033-.067-.063.036 0 0a8.968 8.968 0 00-3.024 3.183 9.016 9.016 0 00-1.158 4.244zM19.741 5.123c0 .796.235 1.575.676 2.237a4.01 4.01 0 001.798 1.482 3.99 3.99 0 004.366-.873 4.042 4.042 0 00.869-4.386 4.02 4.02 0 00-1.476-1.806 3.994 3.994 0 00-5.058.501 4.038 4.038 0 00-1.175 2.845zM23.748 22.84c-.792 0-1.567.236-2.226.678a4.021 4.021 0 00-1.476 1.806 4.042 4.042 0 00.869 4.387 3.99 3.99 0 004.366.873A4.01 4.01 0 0027.08 29.1a4.039 4.039 0 00-.5-5.082 4 4 0 00-2.832-1.18zM34 15.994c0-.796-.235-1.574-.675-2.236a4.01 4.01 0 00-1.798-1.483 3.99 3.99 0 00-4.367.873 4.042 4.042 0 00-.869 4.387 4.02 4.02 0 001.476 1.806 3.993 3.993 0 002.226.678 4.003 4.003 0 002.832-1.18A4.04 4.04 0 0034 15.993z"
     id="path10" />
  <path
     fill="#6366f1"
     d="M5.007 11.969c-.793 0-1.567.236-2.226.678a4.021 4.021 0 00-1.476 1.807 4.042 4.042 0 00.869 4.386 4.001 4.001 0 004.366.873 4.011 4.011 0 001.798-1.483 4.038 4.038 0 00-.5-5.08 4.004 4.004 0 00-2.831-1.181z"
     id="path12" />
  <text
     xml:space="preserve"
     style="font-style:normal;font-variant:normal;font-weight:normal;font-stretch:normal;font-size:19.32160000000000011px;line-height:1.25;font-family:'Apple Braille';-inkscape-font-specification:'Apple Braille';fill:none;stroke-width:1.44913;"
     x="50.419212"
     y="18.218971"
     id="text26"
     transform="scale(0.77721347,1.2866478)"><tspan
       sodipodi:role="line"
       id="tspan24"
       x="50.419212"
       y="18.218971"
       style="stroke-width:1.44913;fill:none;">convocatorias</tspan></text>
  <g
     aria-label="convocatorias"
     transform="scale(0.94095349,1.0627518)"
     id="text48"
     style="font-size:17.75179999999999936px;line-height:1.25;font-family:AppleGothic;-inkscape-font-specification:AppleGothic;fill:#e6e6e6;stroke-width:1.10949">
    <path
       d="m 46.528063,11.313642 v 1.668669 q -0.994101,-0.940845 -2.041457,-1.349137 -0.301781,-0.124262 -0.621313,-0.159766 -0.319533,-0.05325 -0.639065,-0.05325 -1.4734,0 -2.414245,1.100611 -0.940845,1.136116 -0.940845,2.698274 0,1.597662 0.976349,2.733777 0.976349,1.08286 2.449748,1.08286 0.923094,0 1.686421,-0.39054 0.763328,-0.408291 1.544407,-1.207122 v 1.686421 q -0.940846,0.58581 -1.704173,0.834335 -0.763327,0.248525 -1.544407,0.248525 -1.988201,0 -3.408345,-1.420144 -1.384641,-1.4734 -1.384641,-3.55036 0,-2.041457 1.366889,-3.514857 1.38464,-1.455647 3.443849,-1.455647 1.047356,0 1.952698,0.355036 0.532554,0.195269 1.27813,0.69232 z"
       style="font-size:17.75179999999999936px;fill:#e6e6e6;stroke-width:1.10949"
       id="path50" />
    <path
       d="m 52.431091,20.207294 q -1.828435,0 -3.213076,-1.331385 -1.473399,-1.402392 -1.473399,-3.639119 0,-2.112464 1.295881,-3.532609 1.331385,-1.437895 3.284084,-1.437895 1.934946,0 3.266331,1.437895 1.313633,1.420145 1.313633,3.514857 0,2.201223 -1.420144,3.639119 -1.313633,1.349137 -3.05331,1.349137 z m -0.124262,-1.171619 q 1.278129,0 2.27223,-1.065108 0.958597,-1.08286 0.958597,-2.751529 0,-1.721925 -1.029604,-2.804784 -0.940845,-0.994101 -2.183471,-0.994101 -1.27813,0 -2.183472,1.029604 -0.994101,1.136115 -0.994101,2.787033 0,1.668669 0.976349,2.787032 0.905342,1.011853 2.183472,1.011853 z"
       style="font-size:17.75179999999999936px;fill:#e6e6e6;stroke-width:1.10949"
       id="path52" />
    <path
       d="m 66.614503,13.621376 v 6.355145 h -1.27813 v -6.266386 q 0,-0.994101 -0.727823,-1.633166 -0.727824,-0.656816 -1.739677,-0.656816 -1.349137,0 -2.325486,1.118363 -0.976349,1.136115 -0.976349,2.556259 v 4.881746 h -1.207122 v -9.497214 h 1.118363 l 0.05326,1.77518 q 0.479298,-0.727824 1.118363,-1.207122 1.047356,-0.781079 2.36099,-0.781079 1.526654,0 2.556259,0.923093 1.047356,0.905342 1.047356,2.431997 z"
       style="font-size:17.75179999999999936px;fill:#e6e6e6;stroke-width:1.10949"
       id="path54" />
    <path
       d="m 67.778911,10.479307 h 1.437896 l 3.017806,8.148077 3.088814,-8.148077 h 1.278129 l -3.798885,9.497214 h -1.224874 z"
       style="font-size:17.75179999999999936px;fill:#e6e6e6;stroke-width:1.10949"
       id="path56" />
    <path
       d="m 82.352584,20.207294 q -1.828436,0 -3.213076,-1.331385 -1.473399,-1.402392 -1.473399,-3.639119 0,-2.112464 1.295881,-3.532609 1.331385,-1.437895 3.284083,-1.437895 1.934946,0 3.266331,1.437895 1.313634,1.420145 1.313634,3.514857 0,2.201223 -1.420144,3.639119 -1.313634,1.349137 -3.05331,1.349137 z m -0.124263,-1.171619 q 1.27813,0 2.272231,-1.065108 0.958597,-1.08286 0.958597,-2.751529 0,-1.721925 -1.029604,-2.804784 -0.940846,-0.994101 -2.183472,-0.994101 -1.27813,0 -2.183471,1.029604 -0.994101,1.136115 -0.994101,2.787033 0,1.668669 0.976349,2.787032 0.905342,1.011853 2.183471,1.011853 z"
       style="font-size:17.75179999999999936px;fill:#e6e6e6;stroke-width:1.10949"
       id="path58" />
    <path
       d="m 96.038946,11.313642 v 1.668669 q -0.994101,-0.940845 -2.041457,-1.349137 -0.301781,-0.124262 -0.621313,-0.159766 -0.319532,-0.05325 -0.639065,-0.05325 -1.473399,0 -2.414245,1.100611 -0.940845,1.136116 -0.940845,2.698274 0,1.597662 0.976349,2.733777 0.976349,1.08286 2.449748,1.08286 0.923094,0 1.686421,-0.39054 0.763328,-0.408291 1.544407,-1.207122 v 1.686421 q -0.940845,0.58581 -1.704173,0.834335 -0.763327,0.248525 -1.544406,0.248525 -1.988202,0 -3.408346,-1.420144 -1.384641,-1.4734 -1.384641,-3.55036 0,-2.041457 1.366889,-3.514857 1.384641,-1.455647 3.443849,-1.455647 1.047357,0 1.952698,0.355036 0.532555,0.195269 1.27813,0.69232 z"
       style="font-size:17.75179999999999936px;fill:#e6e6e6;stroke-width:1.10949"
       id="path60" />
    <path
       d="m 104.88877,13.834398 v 4.473453 q 0,0.301781 0.12427,0.532554 0.14201,0.213022 0.49705,0.213022 0.10651,0 0.17751,0 0.071,-0.01775 0.14202,-0.0355 0.10651,-0.0355 0.17752,-0.07101 0.0888,-0.0355 0.14201,-0.05326 v 0.994101 q -0.31953,0.10651 -0.63906,0.142014 -0.31954,0.05326 -0.49705,0.05326 -0.90535,0 -1.18938,-0.479298 -0.23077,-0.301781 -0.23077,-1.295882 -0.23077,0.39054 -0.46155,0.692321 -0.23077,0.284028 -0.46154,0.479298 -0.9231,0.727824 -2.14797,0.727824 -1.295882,0 -2.254479,-0.763327 -0.994101,-0.816583 -0.994101,-2.076961 0,-1.57991 1.597662,-2.325486 0.58581,-0.284029 1.544408,-0.49705 0.97635,-0.213022 2.32548,-0.39054 l 0.85209,-0.08876 q 0,-1.242626 -0.63906,-1.934946 -0.62132,-0.710072 -1.84619,-0.710072 -0.46155,0 -0.92309,0.124262 -0.4438,0.106511 -0.905346,0.355036 -0.248526,0.142015 -0.550306,0.337285 -0.301781,0.195269 -0.656817,0.49705 v -1.455648 q 1.508903,-1.011852 3.248579,-1.011852 1.77518,0 2.73378,1.118363 0.83433,0.976349 0.83433,2.449749 z m -1.29588,1.863939 v -0.568058 l -0.60356,0.07101 q -2.21898,0.230774 -3.124317,0.621313 -1.207122,0.479299 -1.207122,1.562159 0,0.319532 0.142014,0.621313 0.142014,0.284028 0.39054,0.514802 0.248525,0.230773 0.603561,0.372788 0.372784,0.142014 0.816584,0.142014 1.20712,0 2.11246,-0.976349 0.86984,-0.994101 0.86984,-2.360989 z"
       style="font-size:17.75179999999999936px;fill:#e6e6e6;stroke-width:1.10949"
       id="path62" />
    <path
       d="m 108.64244,7.6745228 h 1.17162 v 2.7870322 h 2.50301 v 1.153867 h -2.50301 v 6.035613 q 0,0.745575 0.26628,1.065108 0.28403,0.319532 0.9586,0.319532 0.39054,0 0.65681,-0.08876 0.28403,-0.08876 0.62132,-0.230773 v 1.153867 q -0.28403,0.08876 -0.69232,0.159766 -0.39054,0.08876 -0.79883,0.08876 -1.06511,0 -1.65092,-0.479299 -0.65682,-0.49705 -0.65682,-1.597662 v -6.426152 h -1.59766 v -1.153867 h 1.59766 z"
       style="font-size:17.75179999999999936px;fill:#e6e6e6;stroke-width:1.10949"
       id="path64" />
    <path
       d="m 118.02954,20.207294 q -1.82843,0 -3.21307,-1.331385 -1.4734,-1.402392 -1.4734,-3.639119 0,-2.112464 1.29588,-3.532609 1.33139,-1.437895 3.28408,-1.437895 1.93495,0 3.26633,1.437895 1.31364,1.420145 1.31364,3.514857 0,2.201223 -1.42015,3.639119 -1.31363,1.349137 -3.05331,1.349137 z m -0.12426,-1.171619 q 1.27813,0 2.27223,-1.065108 0.9586,-1.08286 0.9586,-2.751529 0,-1.721925 -1.02961,-2.804784 -0.94084,-0.994101 -2.18347,-0.994101 -1.27813,0 -2.18347,1.029604 -0.9941,1.136115 -0.9941,2.787033 0,1.668669 0.97635,2.787032 0.90534,1.011853 2.18347,1.011853 z"
       style="font-size:17.75179999999999936px;fill:#e6e6e6;stroke-width:1.10949"
       id="path66" />
    <path
       d="m 129.05314,10.479307 v 1.27813 q -0.19527,-0.07101 -0.31954,-0.106511 -0.12426,-0.05326 -0.21302,-0.07101 -0.0888,-0.01775 -0.19527,-0.01775 -0.0888,-0.01775 -0.24852,-0.01775 -1.29588,0 -2.13022,1.260378 -0.71007,1.153867 -0.71007,2.574011 v 4.597717 h -1.27813 v -9.497214 h 1.17162 l 0.0888,1.633166 q 0.44379,-0.745576 0.83433,-1.065108 0.79883,-0.656817 1.9172,-0.656817 0.30178,0 0.5503,0.01775 0.26628,0.01775 0.53256,0.07101 z"
       style="font-size:17.75179999999999936px;fill:#e6e6e6;stroke-width:1.10949"
       id="path68" />
    <path
       d="m 130.11048,10.479307 h 1.27813 v 9.497214 h -1.27813 z m 0.62131,-4.0119067 q 0.37279,0 0.62131,0.2485252 0.24853,0.2485252 0.24853,0.7100721 0,0.4615468 -0.23077,0.710072 -0.23078,0.2485252 -0.63907,0.2485252 -0.40829,0 -0.63906,-0.2840288 -0.21303,-0.2840288 -0.21303,-0.6568166 0,-0.5858095 0.26628,-0.7810793 0.26628,-0.1952698 0.58581,-0.1952698 z"
       style="font-size:17.75179999999999936px;fill:#e6e6e6;stroke-width:1.10949"
       id="path70" />
    <path
       d="m 140.39237,13.834398 v 4.473453 q 0,0.301781 0.12427,0.532554 0.14201,0.213022 0.49705,0.213022 0.10651,0 0.17751,0 0.071,-0.01775 0.14202,-0.0355 0.10651,-0.0355 0.17752,-0.07101 0.0888,-0.0355 0.14201,-0.05326 v 0.994101 q -0.31953,0.10651 -0.63906,0.142014 -0.31954,0.05326 -0.49705,0.05326 -0.90535,0 -1.18937,-0.479298 -0.23078,-0.301781 -0.23078,-1.295882 -0.23077,0.39054 -0.46154,0.692321 -0.23078,0.284028 -0.46155,0.479298 -0.9231,0.727824 -2.14797,0.727824 -1.29588,0 -2.25448,-0.763327 -0.9941,-0.816583 -0.9941,-2.076961 0,-1.57991 1.59766,-2.325486 0.58581,-0.284029 1.54441,-0.49705 0.97635,-0.213022 2.32549,-0.39054 l 0.85208,-0.08876 q 0,-1.242626 -0.63906,-1.934946 -0.62132,-0.710072 -1.84619,-0.710072 -0.46155,0 -0.92309,0.124262 -0.4438,0.106511 -0.90535,0.355036 -0.24852,0.142015 -0.5503,0.337285 -0.30178,0.195269 -0.65682,0.49705 v -1.455648 q 1.50891,-1.011852 3.24858,-1.011852 1.77518,0 2.73378,1.118363 0.83433,0.976349 0.83433,2.449749 z m -1.29588,1.863939 v -0.568058 l -0.60356,0.07101 q -2.21897,0.230774 -3.12432,0.621313 -1.20712,0.479299 -1.20712,1.562159 0,0.319532 0.14202,0.621313 0.14201,0.284028 0.39054,0.514802 0.24852,0.230773 0.60356,0.372788 0.37278,0.142014 0.81658,0.142014 1.20712,0 2.11246,-0.976349 0.86984,-0.994101 0.86984,-2.360989 z"
       style="font-size:17.75179999999999936px;fill:#e6e6e6;stroke-width:1.10949"
       id="path72" />
    <path
       d="m 142.85016,19.159938 v -1.544407 q 1.10062,0.88759 2.23673,1.242626 0.33729,0.08876 0.65682,0.142015 0.31953,0.0355 0.65681,0.0355 1.08286,0 1.79294,-0.49705 0.72782,-0.532554 0.72782,-1.189371 0,-0.355036 -0.26628,-0.727824 -0.37278,-0.461547 -1.9882,-0.834334 -1.91719,-0.479299 -2.55626,-0.798831 -1.24262,-0.710072 -1.24262,-1.988202 0,-1.189371 1.0296,-1.952698 1.04736,-0.781079 2.60952,-0.781079 0.71007,0 1.27812,0.124262 0.56806,0.124263 1.06511,0.337284 0.49705,0.19527 0.9231,0.497051 v 1.544407 q -0.74558,-0.621313 -1.56216,-0.97635 -0.81658,-0.372787 -1.72193,-0.372787 -0.90534,0 -1.56216,0.408291 -0.67456,0.408292 -0.67456,1.065108 0,0.869838 1.59766,1.384641 0.74557,0.213021 1.4734,0.426043 0.72782,0.213021 1.4734,0.426043 1.61541,0.69232 1.61541,2.094712 0,1.189371 -1.11836,2.094713 -1.13612,0.88759 -2.82254,0.88759 -0.74557,0 -1.45565,-0.159766 -1.13611,-0.248525 -2.16572,-0.88759 z"
       style="font-size:17.75179999999999936px;fill:#e6e6e6;stroke-width:1.10949"
       id="path74" />
  </g>
</svg>
